<mxfile host="65bd71144e" modified="2020-12-30T02:39:18.744Z" agent="5.0 (Windows NT 10.0; Win64; x64) AppleWebKit/537.36 (KHTML, like Gecko) Code/1.52.1 Chrome/83.0.4103.122 Electron/9.3.5 Safari/537.36" etag="dJl0AUBQzNclrLbHd6Bs" version="13.10.0" type="embed" pages="2">
    <diagram id="A_2y1xxBXopcbs7GqyOi" name="DIO">
        <mxGraphModel dx="1151" dy="790" grid="0" gridSize="10" guides="1" tooltips="1" connect="1" arrows="1" fold="1" page="1" pageScale="1" pageWidth="827" pageHeight="1169" background="#ffffff" math="0" shadow="0">
            <root>
                <mxCell id="0"/>
                <mxCell id="1" parent="0"/>
                <mxCell id="2" value="M4" style="rounded=1;whiteSpace=wrap;html=1;" parent="1" vertex="1">
                    <mxGeometry x="684" y="261" width="120" height="60" as="geometry"/>
                </mxCell>
                <mxCell id="3" value="A9" style="rounded=1;whiteSpace=wrap;html=1;" parent="1" vertex="1">
                    <mxGeometry x="184" y="261" width="120" height="60" as="geometry"/>
                </mxCell>
                <mxCell id="4" value="" style="rounded=0;whiteSpace=wrap;html=1;" parent="1" vertex="1">
                    <mxGeometry x="438" y="351" width="120" height="60" as="geometry"/>
                </mxCell>
                <mxCell id="5" value="DO" style="text;html=1;strokeColor=none;fillColor=none;align=center;verticalAlign=middle;whiteSpace=wrap;rounded=0;" parent="1" vertex="1">
                    <mxGeometry x="478" y="371" width="40" height="20" as="geometry"/>
                </mxCell>
                <mxCell id="6" value="DI" style="rounded=0;whiteSpace=wrap;html=1;" parent="1" vertex="1">
                    <mxGeometry x="438" y="431" width="120" height="60" as="geometry"/>
                </mxCell>
                <mxCell id="9" value="MU" style="rounded=1;whiteSpace=wrap;html=1;" parent="1" vertex="1">
                    <mxGeometry x="437.5" y="261" width="120" height="60" as="geometry"/>
                </mxCell>
                <mxCell id="10" value="" style="endArrow=classic;html=1;exitX=0;exitY=0.5;exitDx=0;exitDy=0;fillColor=#dae8fc;strokeColor=#6c8ebf;entryX=0;entryY=1;entryDx=0;entryDy=0;" parent="1" source="2" target="11" edge="1">
                    <mxGeometry width="50" height="50" relative="1" as="geometry">
                        <mxPoint x="524" y="351" as="sourcePoint"/>
                        <mxPoint x="554" y="291" as="targetPoint"/>
                    </mxGeometry>
                </mxCell>
                <mxCell id="11" value="start + count" style="text;html=1;strokeColor=none;fillColor=none;align=center;verticalAlign=middle;whiteSpace=wrap;rounded=0;" parent="1" vertex="1">
                    <mxGeometry x="557.5" y="271" width="110" height="20" as="geometry"/>
                </mxCell>
                <mxCell id="12" value="" style="endArrow=classic;html=1;exitX=0.5;exitY=1;exitDx=0;exitDy=0;entryX=0;entryY=0.5;entryDx=0;entryDy=0;fillColor=#dae8fc;strokeColor=#6c8ebf;" parent="1" source="3" target="4" edge="1">
                    <mxGeometry width="50" height="50" relative="1" as="geometry">
                        <mxPoint x="524" y="431" as="sourcePoint"/>
                        <mxPoint x="574" y="381" as="targetPoint"/>
                    </mxGeometry>
                </mxCell>
                <mxCell id="33" value="" style="edgeStyle=orthogonalEdgeStyle;rounded=0;orthogonalLoop=1;jettySize=auto;html=1;fontSize=19;" parent="1" source="13" target="32" edge="1">
                    <mxGeometry relative="1" as="geometry"/>
                </mxCell>
                <mxCell id="13" value="SPI" style="shape=cylinder3;whiteSpace=wrap;html=1;boundedLbl=1;backgroundOutline=1;size=15;fontFamily=Helvetica;fontSize=12;fontColor=#000000;align=center;strokeColor=#000000;fillColor=#ffffff;" parent="1" vertex="1">
                    <mxGeometry x="174" y="431" width="120" height="80" as="geometry"/>
                </mxCell>
                <mxCell id="14" value="" style="endArrow=classic;html=1;exitX=0;exitY=0.5;exitDx=0;exitDy=0;fillColor=#dae8fc;strokeColor=#6c8ebf;entryX=0.855;entryY=0;entryDx=0;entryDy=4.35;entryPerimeter=0;" parent="1" source="4" target="13" edge="1">
                    <mxGeometry width="50" height="50" relative="1" as="geometry">
                        <mxPoint x="524" y="431" as="sourcePoint"/>
                        <mxPoint x="574" y="381" as="targetPoint"/>
                    </mxGeometry>
                </mxCell>
                <mxCell id="15" value="" style="endArrow=classic;html=1;fillColor=#dae8fc;strokeColor=#6c8ebf;" parent="1" edge="1">
                    <mxGeometry width="50" height="50" relative="1" as="geometry">
                        <mxPoint x="504" y="151" as="sourcePoint"/>
                        <mxPoint x="584" y="151" as="targetPoint"/>
                    </mxGeometry>
                </mxCell>
                <mxCell id="16" value="&lt;font color=&quot;#000000&quot;&gt;Set DO&lt;/font&gt;" style="text;html=1;align=center;verticalAlign=middle;whiteSpace=wrap;rounded=0;" parent="1" vertex="1">
                    <mxGeometry x="504" y="131" width="76" height="20" as="geometry"/>
                </mxCell>
                <mxCell id="17" value="" style="endArrow=classic;html=1;fillColor=#f8cecc;strokeColor=#b85450;" parent="1" edge="1">
                    <mxGeometry width="50" height="50" relative="1" as="geometry">
                        <mxPoint x="502" y="191" as="sourcePoint"/>
                        <mxPoint x="582" y="191" as="targetPoint"/>
                        <Array as="points">
                            <mxPoint x="542" y="191"/>
                        </Array>
                    </mxGeometry>
                </mxCell>
                <mxCell id="18" value="&lt;font color=&quot;#000000&quot;&gt;Get DI&lt;/font&gt;" style="text;html=1;align=center;verticalAlign=middle;whiteSpace=wrap;rounded=0;" parent="1" vertex="1">
                    <mxGeometry x="518" y="171" width="40" height="20" as="geometry"/>
                </mxCell>
                <mxCell id="19" value="timer" style="ellipse;shape=cloud;whiteSpace=wrap;html=1;" parent="1" vertex="1">
                    <mxGeometry x="14" y="291" width="120" height="80" as="geometry"/>
                </mxCell>
                <mxCell id="20" value="" style="endArrow=classic;html=1;fillColor=#f8cecc;strokeColor=#b85450;exitX=0.875;exitY=0.5;exitDx=0;exitDy=0;exitPerimeter=0;entryX=0;entryY=0.5;entryDx=0;entryDy=0;" parent="1" source="19" target="3" edge="1">
                    <mxGeometry width="50" height="50" relative="1" as="geometry">
                        <mxPoint x="144" y="351" as="sourcePoint"/>
                        <mxPoint x="194" y="301" as="targetPoint"/>
                    </mxGeometry>
                </mxCell>
                <mxCell id="21" value="" style="endArrow=classic;html=1;entryX=0;entryY=0.5;entryDx=0;entryDy=0;fillColor=#f8cecc;strokeColor=#b85450;" parent="1" source="13" target="6" edge="1">
                    <mxGeometry width="50" height="50" relative="1" as="geometry">
                        <mxPoint x="114" y="431" as="sourcePoint"/>
                        <mxPoint x="164" y="381" as="targetPoint"/>
                        <Array as="points"/>
                    </mxGeometry>
                </mxCell>
                <mxCell id="22" value="" style="endArrow=classic;html=1;fillColor=#f8cecc;strokeColor=#b85450;" parent="1" target="13" edge="1">
                    <mxGeometry width="50" height="50" relative="1" as="geometry">
                        <mxPoint x="214" y="321" as="sourcePoint"/>
                        <mxPoint x="194" y="301" as="targetPoint"/>
                    </mxGeometry>
                </mxCell>
                <mxCell id="25" value="" style="endArrow=classic;html=1;exitX=0.5;exitY=1;exitDx=0;exitDy=0;entryX=1;entryY=0.5;entryDx=0;entryDy=0;fillColor=#f8cecc;strokeColor=#b85450;" parent="1" source="2" target="6" edge="1">
                    <mxGeometry width="50" height="50" relative="1" as="geometry">
                        <mxPoint x="654" y="431" as="sourcePoint"/>
                        <mxPoint x="704" y="381" as="targetPoint"/>
                    </mxGeometry>
                </mxCell>
                <mxCell id="26" value="" style="rounded=0;whiteSpace=wrap;html=1;dashed=1;sketch=0;fillColor=none;" parent="1" vertex="1">
                    <mxGeometry x="383" y="341" width="230" height="205" as="geometry"/>
                </mxCell>
                <mxCell id="27" value="共享内存" style="text;html=1;strokeColor=none;fillColor=none;align=center;verticalAlign=middle;whiteSpace=wrap;rounded=0;dashed=1;sketch=0;fontSize=19;" parent="1" vertex="1">
                    <mxGeometry x="450" y="511" width="91.5" height="20" as="geometry"/>
                </mxCell>
                <mxCell id="29" value="" style="endArrow=classic;html=1;fontSize=19;exitX=0;exitY=0.5;exitDx=0;exitDy=0;entryX=1;entryY=0.5;entryDx=0;entryDy=0;fillColor=#dae8fc;strokeColor=#6c8ebf;" parent="1" source="9" target="3" edge="1">
                    <mxGeometry width="50" height="50" relative="1" as="geometry">
                        <mxPoint x="344" y="301" as="sourcePoint"/>
                        <mxPoint x="394" y="251" as="targetPoint"/>
                    </mxGeometry>
                </mxCell>
                <mxCell id="30" value="start + count" style="text;html=1;strokeColor=none;fillColor=none;align=center;verticalAlign=middle;whiteSpace=wrap;rounded=0;" parent="1" vertex="1">
                    <mxGeometry x="304" y="271" width="110" height="20" as="geometry"/>
                </mxCell>
                <mxCell id="32" value="&lt;font color=&quot;#000000&quot;&gt;DIO 板子&lt;/font&gt;" style="rounded=1;whiteSpace=wrap;html=1;dashed=1;sketch=0;fillColor=none;fontSize=19;" parent="1" vertex="1">
                    <mxGeometry x="170" y="552" width="120" height="60" as="geometry"/>
                </mxCell>
            </root>
        </mxGraphModel>
    </diagram>
    <diagram id="6M84nR1KHxS98Fud5MVV" name="MSG">
        <mxGraphModel dx="1151" dy="790" grid="1" gridSize="10" guides="1" tooltips="1" connect="1" arrows="1" fold="1" page="1" pageScale="1" pageWidth="827" pageHeight="1169" background="#ffffff" math="0" shadow="0">
            <root>
                <mxCell id="qWXudlkyBwOQNvYmeqn8-0"/>
                <mxCell id="qWXudlkyBwOQNvYmeqn8-1" parent="qWXudlkyBwOQNvYmeqn8-0"/>
                <mxCell id="qWXudlkyBwOQNvYmeqn8-2" value="M4" style="whiteSpace=wrap;html=1;fillColor=#F2CC8F;strokeColor=#E07A5F;fontColor=#393C56;rounded=1;" parent="qWXudlkyBwOQNvYmeqn8-1" vertex="1">
                    <mxGeometry x="169" y="130" width="120" height="60" as="geometry"/>
                </mxCell>
                <mxCell id="qWXudlkyBwOQNvYmeqn8-3" value="MU" style="whiteSpace=wrap;html=1;fillColor=#F2CC8F;strokeColor=#E07A5F;fontColor=#393C56;rounded=1;" parent="qWXudlkyBwOQNvYmeqn8-1" vertex="1">
                    <mxGeometry x="393" y="176" width="120" height="60" as="geometry"/>
                </mxCell>
                <mxCell id="qWXudlkyBwOQNvYmeqn8-4" value="A9" style="whiteSpace=wrap;html=1;fillColor=#F2CC8F;strokeColor=#E07A5F;fontColor=#393C56;rounded=1;" parent="qWXudlkyBwOQNvYmeqn8-1" vertex="1">
                    <mxGeometry x="599" y="130" width="120" height="60" as="geometry"/>
                </mxCell>
                <mxCell id="qWXudlkyBwOQNvYmeqn8-6" value="" style="whiteSpace=wrap;html=1;fillColor=#F2CC8F;strokeColor=#E07A5F;fontColor=#393C56;rounded=1;" parent="qWXudlkyBwOQNvYmeqn8-1" vertex="1">
                    <mxGeometry x="369" y="310" width="180" height="190" as="geometry"/>
                </mxCell>
                <mxCell id="qWXudlkyBwOQNvYmeqn8-7" value="msg 队列buff" style="text;html=1;strokeColor=none;fillColor=none;align=center;verticalAlign=middle;whiteSpace=wrap;fontColor=#393C56;rounded=1;" parent="qWXudlkyBwOQNvYmeqn8-1" vertex="1">
                    <mxGeometry x="479" y="470" width="54" height="20" as="geometry"/>
                </mxCell>
                <mxCell id="qWXudlkyBwOQNvYmeqn8-8" value="msg 1" style="text;html=1;strokeColor=none;fillColor=none;align=center;verticalAlign=middle;whiteSpace=wrap;fontColor=#393C56;rounded=1;" parent="qWXudlkyBwOQNvYmeqn8-1" vertex="1">
                    <mxGeometry x="389" y="340" width="40" height="20" as="geometry"/>
                </mxCell>
                <mxCell id="qWXudlkyBwOQNvYmeqn8-9" value="msg 2" style="text;html=1;strokeColor=none;fillColor=none;align=center;verticalAlign=middle;whiteSpace=wrap;fontColor=#393C56;rounded=1;" parent="qWXudlkyBwOQNvYmeqn8-1" vertex="1">
                    <mxGeometry x="389" y="370" width="40" height="20" as="geometry"/>
                </mxCell>
                <mxCell id="qWXudlkyBwOQNvYmeqn8-10" value="msg 3" style="text;html=1;strokeColor=none;fillColor=none;align=center;verticalAlign=middle;whiteSpace=wrap;fontColor=#393C56;rounded=1;" parent="qWXudlkyBwOQNvYmeqn8-1" vertex="1">
                    <mxGeometry x="389" y="400" width="40" height="20" as="geometry"/>
                </mxCell>
                <mxCell id="qWXudlkyBwOQNvYmeqn8-11" value="msg 4" style="text;html=1;strokeColor=none;fillColor=none;align=center;verticalAlign=middle;whiteSpace=wrap;dashed=1;fontColor=#393C56;rounded=1;" parent="qWXudlkyBwOQNvYmeqn8-1" vertex="1">
                    <mxGeometry x="389" y="430" width="40" height="20" as="geometry"/>
                </mxCell>
                <mxCell id="qWXudlkyBwOQNvYmeqn8-12" value="" style="edgeStyle=elbowEdgeStyle;elbow=horizontal;endArrow=classic;html=1;entryX=-0.012;entryY=0.203;entryDx=0;entryDy=0;entryPerimeter=0;strokeColor=#E07A5F;fontColor=#393C56;curved=1;labelBackgroundColor=#F4F1DE;" parent="qWXudlkyBwOQNvYmeqn8-1" source="qWXudlkyBwOQNvYmeqn8-6" target="qWXudlkyBwOQNvYmeqn8-6" edge="1">
                    <mxGeometry width="50" height="50" relative="1" as="geometry">
                        <mxPoint x="319" y="380" as="sourcePoint"/>
                        <mxPoint x="369" y="330" as="targetPoint"/>
                        <Array as="points">
                            <mxPoint x="319" y="480"/>
                            <mxPoint x="329" y="480"/>
                            <mxPoint x="329" y="460"/>
                            <mxPoint x="309" y="350"/>
                            <mxPoint x="309" y="350"/>
                            <mxPoint x="319" y="350"/>
                            <mxPoint x="319" y="472"/>
                            <mxPoint x="319" y="375"/>
                        </Array>
                    </mxGeometry>
                </mxCell>
                <mxCell id="qWXudlkyBwOQNvYmeqn8-13" value="1. malloc msg" style="text;html=1;strokeColor=none;fillColor=none;align=center;verticalAlign=middle;whiteSpace=wrap;dashed=1;fontColor=#393C56;rounded=1;" parent="qWXudlkyBwOQNvYmeqn8-1" vertex="1">
                    <mxGeometry x="266" y="260" width="80" height="20" as="geometry"/>
                </mxCell>
                <mxCell id="qWXudlkyBwOQNvYmeqn8-14" value="" style="endArrow=classic;html=1;exitX=1;exitY=0.5;exitDx=0;exitDy=0;entryX=0;entryY=0.5;entryDx=0;entryDy=0;fillColor=#F2CC8F;strokeColor=#E07A5F;fontColor=#393C56;curved=1;labelBackgroundColor=#F4F1DE;" parent="qWXudlkyBwOQNvYmeqn8-1" source="qWXudlkyBwOQNvYmeqn8-2" target="qWXudlkyBwOQNvYmeqn8-3" edge="1">
                    <mxGeometry width="50" height="50" relative="1" as="geometry">
                        <mxPoint x="409" y="270" as="sourcePoint"/>
                        <mxPoint x="459" y="220" as="targetPoint"/>
                    </mxGeometry>
                </mxCell>
                <mxCell id="qWXudlkyBwOQNvYmeqn8-15" value="2. MU type MSG" style="text;html=1;strokeColor=none;fillColor=none;align=center;verticalAlign=middle;whiteSpace=wrap;dashed=1;fontColor=#393C56;rounded=1;" parent="qWXudlkyBwOQNvYmeqn8-1" vertex="1">
                    <mxGeometry x="329" y="150" width="60" height="40" as="geometry"/>
                </mxCell>
                <mxCell id="qWXudlkyBwOQNvYmeqn8-16" value="" style="endArrow=classic;html=1;exitX=1;exitY=0.5;exitDx=0;exitDy=0;entryX=0;entryY=0.5;entryDx=0;entryDy=0;fillColor=#F2CC8F;strokeColor=#E07A5F;fontColor=#393C56;curved=1;labelBackgroundColor=#F4F1DE;" parent="qWXudlkyBwOQNvYmeqn8-1" source="qWXudlkyBwOQNvYmeqn8-3" target="qWXudlkyBwOQNvYmeqn8-4" edge="1">
                    <mxGeometry width="50" height="50" relative="1" as="geometry">
                        <mxPoint x="409" y="270" as="sourcePoint"/>
                        <mxPoint x="459" y="220" as="targetPoint"/>
                    </mxGeometry>
                </mxCell>
                <mxCell id="qWXudlkyBwOQNvYmeqn8-17" value="3.MU type MSG" style="text;html=1;strokeColor=none;fillColor=none;align=center;verticalAlign=middle;whiteSpace=wrap;dashed=1;fontColor=#393C56;rounded=1;" parent="qWXudlkyBwOQNvYmeqn8-1" vertex="1">
                    <mxGeometry x="509" y="150" width="60" height="40" as="geometry"/>
                </mxCell>
                <mxCell id="qWXudlkyBwOQNvYmeqn8-18" value="" style="endArrow=classic;html=1;exitX=0.5;exitY=1;exitDx=0;exitDy=0;entryX=1.006;entryY=0.207;entryDx=0;entryDy=0;entryPerimeter=0;strokeColor=#E07A5F;fontColor=#393C56;curved=1;labelBackgroundColor=#F4F1DE;" parent="qWXudlkyBwOQNvYmeqn8-1" source="qWXudlkyBwOQNvYmeqn8-4" target="qWXudlkyBwOQNvYmeqn8-6" edge="1">
                    <mxGeometry width="50" height="50" relative="1" as="geometry">
                        <mxPoint x="409" y="270" as="sourcePoint"/>
                        <mxPoint x="459" y="220" as="targetPoint"/>
                    </mxGeometry>
                </mxCell>
                <mxCell id="qWXudlkyBwOQNvYmeqn8-19" value="4. 获取到msg&amp;nbsp;" style="text;html=1;strokeColor=none;fillColor=none;align=center;verticalAlign=middle;whiteSpace=wrap;dashed=1;fontColor=#393C56;rounded=1;" parent="qWXudlkyBwOQNvYmeqn8-1" vertex="1">
                    <mxGeometry x="603" y="270" width="70" height="20" as="geometry"/>
                </mxCell>
                <mxCell id="qWXudlkyBwOQNvYmeqn8-20" value="" style="endArrow=classic;html=1;exitX=0;exitY=0.75;exitDx=0;exitDy=0;entryX=1;entryY=0.75;entryDx=0;entryDy=0;strokeColor=#E07A5F;fontColor=#393C56;curved=1;labelBackgroundColor=#F4F1DE;" parent="qWXudlkyBwOQNvYmeqn8-1" source="qWXudlkyBwOQNvYmeqn8-4" target="qWXudlkyBwOQNvYmeqn8-3" edge="1">
                    <mxGeometry width="50" height="50" relative="1" as="geometry">
                        <mxPoint x="409" y="270" as="sourcePoint"/>
                        <mxPoint x="459" y="220" as="targetPoint"/>
                    </mxGeometry>
                </mxCell>
                <mxCell id="qWXudlkyBwOQNvYmeqn8-21" value="5. 向M4 发送已收到" style="text;html=1;strokeColor=none;fillColor=none;align=center;verticalAlign=middle;whiteSpace=wrap;dashed=1;fontColor=#393C56;rounded=1;" parent="qWXudlkyBwOQNvYmeqn8-1" vertex="1">
                    <mxGeometry x="539" y="210" width="70" height="20" as="geometry"/>
                </mxCell>
                <mxCell id="qWXudlkyBwOQNvYmeqn8-22" value="" style="endArrow=classic;html=1;exitX=0;exitY=0.75;exitDx=0;exitDy=0;entryX=1;entryY=0.75;entryDx=0;entryDy=0;strokeColor=#E07A5F;fontColor=#393C56;curved=1;labelBackgroundColor=#F4F1DE;" parent="qWXudlkyBwOQNvYmeqn8-1" source="qWXudlkyBwOQNvYmeqn8-3" target="qWXudlkyBwOQNvYmeqn8-2" edge="1">
                    <mxGeometry width="50" height="50" relative="1" as="geometry">
                        <mxPoint x="329" y="280" as="sourcePoint"/>
                        <mxPoint x="379" y="230" as="targetPoint"/>
                    </mxGeometry>
                </mxCell>
                <mxCell id="qWXudlkyBwOQNvYmeqn8-23" value="6. 收到A9回复" style="text;html=1;strokeColor=none;fillColor=none;align=center;verticalAlign=middle;whiteSpace=wrap;dashed=1;fontColor=#393C56;rounded=1;" parent="qWXudlkyBwOQNvYmeqn8-1" vertex="1">
                    <mxGeometry x="299" y="210" width="50" height="20" as="geometry"/>
                </mxCell>
                <mxCell id="qWXudlkyBwOQNvYmeqn8-24" value="7. 获取当前的msg,调用callback，并free msg" style="text;html=1;strokeColor=none;fillColor=none;align=center;verticalAlign=middle;whiteSpace=wrap;dashed=1;fontColor=#393C56;rounded=1;" parent="qWXudlkyBwOQNvYmeqn8-1" vertex="1">
                    <mxGeometry x="109" y="330" width="120" height="60" as="geometry"/>
                </mxCell>
                <mxCell id="qWXudlkyBwOQNvYmeqn8-25" value="....." style="text;html=1;strokeColor=none;fillColor=none;align=center;verticalAlign=middle;whiteSpace=wrap;dashed=1;fontColor=#393C56;rounded=1;" parent="qWXudlkyBwOQNvYmeqn8-1" vertex="1">
                    <mxGeometry x="389" y="460" width="40" height="20" as="geometry"/>
                </mxCell>
                <mxCell id="qWXudlkyBwOQNvYmeqn8-26" value="msg 队列结构体" style="text;html=1;strokeColor=none;fillColor=none;align=center;verticalAlign=middle;whiteSpace=wrap;fontColor=#393C56;rounded=1;" parent="qWXudlkyBwOQNvYmeqn8-1" vertex="1">
                    <mxGeometry x="414" y="310" width="90" height="20" as="geometry"/>
                </mxCell>
                <mxCell id="qWXudlkyBwOQNvYmeqn8-27" value="" style="endArrow=none;dashed=1;html=1;exitX=0.002;exitY=0.132;exitDx=0;exitDy=0;exitPerimeter=0;strokeColor=#E07A5F;fontColor=#393C56;curved=1;labelBackgroundColor=#F4F1DE;" parent="qWXudlkyBwOQNvYmeqn8-1" source="qWXudlkyBwOQNvYmeqn8-6" edge="1">
                    <mxGeometry width="50" height="50" relative="1" as="geometry">
                        <mxPoint x="419" y="330" as="sourcePoint"/>
                        <mxPoint x="546" y="333" as="targetPoint"/>
                    </mxGeometry>
                </mxCell>
                <mxCell id="qWXudlkyBwOQNvYmeqn8-28" value="" style="endArrow=none;dashed=1;html=1;exitX=0;exitY=0.25;exitDx=0;exitDy=0;entryX=1;entryY=0.25;entryDx=0;entryDy=0;strokeColor=#E07A5F;fontColor=#393C56;curved=1;labelBackgroundColor=#F4F1DE;" parent="qWXudlkyBwOQNvYmeqn8-1" source="qWXudlkyBwOQNvYmeqn8-6" target="qWXudlkyBwOQNvYmeqn8-6" edge="1">
                    <mxGeometry width="50" height="50" relative="1" as="geometry">
                        <mxPoint x="419" y="330" as="sourcePoint"/>
                        <mxPoint x="469" y="280" as="targetPoint"/>
                    </mxGeometry>
                </mxCell>
                <mxCell id="qWXudlkyBwOQNvYmeqn8-29" value="" style="endArrow=none;dashed=1;html=1;exitX=-0.007;exitY=0.4;exitDx=0;exitDy=0;exitPerimeter=0;entryX=1;entryY=0.4;entryDx=0;entryDy=0;entryPerimeter=0;strokeColor=#E07A5F;fontColor=#393C56;curved=1;labelBackgroundColor=#F4F1DE;" parent="qWXudlkyBwOQNvYmeqn8-1" source="qWXudlkyBwOQNvYmeqn8-6" target="qWXudlkyBwOQNvYmeqn8-6" edge="1">
                    <mxGeometry width="50" height="50" relative="1" as="geometry">
                        <mxPoint x="419" y="330" as="sourcePoint"/>
                        <mxPoint x="469" y="280" as="targetPoint"/>
                    </mxGeometry>
                </mxCell>
                <mxCell id="qWXudlkyBwOQNvYmeqn8-30" value="" style="endArrow=none;dashed=1;html=1;exitX=0.006;exitY=0.584;exitDx=0;exitDy=0;exitPerimeter=0;entryX=1.011;entryY=0.589;entryDx=0;entryDy=0;entryPerimeter=0;strokeColor=#E07A5F;fontColor=#393C56;curved=1;labelBackgroundColor=#F4F1DE;" parent="qWXudlkyBwOQNvYmeqn8-1" source="qWXudlkyBwOQNvYmeqn8-6" target="qWXudlkyBwOQNvYmeqn8-6" edge="1">
                    <mxGeometry width="50" height="50" relative="1" as="geometry">
                        <mxPoint x="419" y="440" as="sourcePoint"/>
                        <mxPoint x="469" y="390" as="targetPoint"/>
                    </mxGeometry>
                </mxCell>
                <mxCell id="qWXudlkyBwOQNvYmeqn8-31" value="" style="endArrow=none;dashed=1;html=1;exitX=0;exitY=0.75;exitDx=0;exitDy=0;entryX=1;entryY=0.75;entryDx=0;entryDy=0;strokeColor=#E07A5F;fontColor=#393C56;curved=1;labelBackgroundColor=#F4F1DE;" parent="qWXudlkyBwOQNvYmeqn8-1" source="qWXudlkyBwOQNvYmeqn8-6" target="qWXudlkyBwOQNvYmeqn8-6" edge="1">
                    <mxGeometry width="50" height="50" relative="1" as="geometry">
                        <mxPoint x="429" y="480" as="sourcePoint"/>
                        <mxPoint x="479" y="430" as="targetPoint"/>
                    </mxGeometry>
                </mxCell>
                <mxCell id="qWXudlkyBwOQNvYmeqn8-32" value="" style="endArrow=classic;html=1;entryX=0.25;entryY=1;entryDx=0;entryDy=0;exitX=0;exitY=0.158;exitDx=0;exitDy=0;exitPerimeter=0;strokeColor=#E07A5F;fontColor=#393C56;curved=1;labelBackgroundColor=#F4F1DE;" parent="qWXudlkyBwOQNvYmeqn8-1" source="qWXudlkyBwOQNvYmeqn8-6" target="qWXudlkyBwOQNvYmeqn8-2" edge="1">
                    <mxGeometry width="50" height="50" relative="1" as="geometry">
                        <mxPoint x="199" y="270" as="sourcePoint"/>
                        <mxPoint x="249" y="220" as="targetPoint"/>
                        <Array as="points">
                            <mxPoint x="229" y="340"/>
                            <mxPoint x="179" y="310"/>
                            <mxPoint x="179" y="220"/>
                        </Array>
                    </mxGeometry>
                </mxCell>
                <mxCell id="qWXudlkyBwOQNvYmeqn8-33" value="" style="endArrow=classic;html=1;exitX=0.75;exitY=1;exitDx=0;exitDy=0;entryX=0.002;entryY=0.172;entryDx=0;entryDy=0;entryPerimeter=0;strokeColor=#E07A5F;fontColor=#393C56;curved=1;labelBackgroundColor=#F4F1DE;" parent="qWXudlkyBwOQNvYmeqn8-1" source="qWXudlkyBwOQNvYmeqn8-2" target="qWXudlkyBwOQNvYmeqn8-6" edge="1">
                    <mxGeometry width="50" height="50" relative="1" as="geometry">
                        <mxPoint x="239" y="440" as="sourcePoint"/>
                        <mxPoint x="289" y="390" as="targetPoint"/>
                        <Array as="points">
                            <mxPoint x="249" y="220"/>
                            <mxPoint x="269" y="290"/>
                        </Array>
                    </mxGeometry>
                </mxCell>
                <mxCell id="8CK3Y6FHcLA7IYxIVoIZ-0" value="&lt;font color=&quot;#080808&quot;&gt;共享内存&lt;/font&gt;" style="text;strokeColor=none;fillColor=none;html=1;fontSize=24;fontStyle=1;verticalAlign=middle;align=center;" parent="qWXudlkyBwOQNvYmeqn8-1" vertex="1">
                    <mxGeometry x="403" y="500" width="100" height="40" as="geometry"/>
                </mxCell>
            </root>
        </mxGraphModel>
    </diagram>
</mxfile>